# xmcd
#
# Track frame offsets:
#	150
#	38542
#	63431
#	139186
#	189966
#	226334
#	257776
#	302692
#	332671
#
# Disc length: 4634 seconds
#
# Revision: 0
# Processed by: cddbd v1.5.2PL0 Copyright (c) Steve Scherf et al.
# Submitted via: audiograbber 1.83.01
#
DISCID=73121809
DTITLE=Grateful Dead - 93-09-13 The Spectrum, Philadelphia PA
DYEAR=1900
DGENRE=
TTITLE0=Playing In The Band
TTITLE1=Dark Star
TTITLE2=Terrapin Station
TTITLE3=Drums
TTITLE4=Space > Tubular Bells Jam
TTITLE5=Easy Answers
TTITLE6=Days Between
TTITLE7=Good Lovin'
TTITLE8=I Fought The Law
EXTD=
EXTT0=
EXTT1=
EXTT2=
EXTT3=
EXTT4=
EXTT5=
EXTT6=
EXTT7=
EXTT8=
PLAYORDER=
